<svg width="163" height="33" viewBox="0 0 163 33" fill="none" xmlns="http://www.w3.org/2000/svg">
<g style="mix-blend-mode:luminosity" clip-path="url(#clip0_24_1513)">
<path d="M108.357 0.143066H136.749V5.36424H125.486V32.832H119.855V5.36424H108.357V0.143066ZM61.6637 0.143066V5.36424H38.9057V13.7634H57.2076V18.9845H38.9057V27.6108H61.6637V32.8324H33.2743V5.36424H33.2719V0.143066H61.6637ZM75.8405 0.156669H68.4708L94.8677 32.8456H102.259L89.0588 16.5122L102.238 0.1814L94.8677 0.192941L85.369 11.9469L75.8405 0.156669ZM83.4031 23.5066L79.7124 18.9347L68.4497 32.8707H75.8405L83.4031 23.5066Z" fill="black"/>
<path fill-rule="evenodd" clip-rule="evenodd" d="M33.4717 32.8319L7.0392 0.129395H0V32.8183H5.63136V7.11678L26.3973 32.8319H33.4717Z" fill="black"/>
<path d="M138.015 32.6323C137.819 32.6355 137.625 32.5993 137.443 32.5259C137.261 32.4526 137.096 32.3435 136.958 32.2053C136.664 31.9205 136.519 31.5759 136.523 31.1674C136.519 30.7705 136.664 30.4296 136.958 30.1448C137.096 30.0065 137.261 29.8975 137.443 29.8241C137.625 29.7508 137.819 29.7146 138.015 29.7177C138.412 29.7177 138.759 29.8599 139.053 30.1448C139.351 30.4292 139.499 30.7705 139.503 31.1674C139.502 31.4279 139.43 31.6832 139.293 31.9052C139.159 32.1246 138.971 32.3064 138.747 32.4336C138.526 32.5654 138.273 32.6341 138.015 32.6323ZM147.627 18.8612H150.122V28.4404C150.118 29.3204 149.927 30.0735 149.554 30.7066C149.176 31.3397 148.653 31.8228 147.982 32.1637C147.314 32.5008 146.532 32.6735 145.643 32.6735C144.83 32.6735 144.101 32.5272 143.452 32.2424C142.804 31.958 142.289 31.531 141.911 30.9687C141.529 30.4069 141.342 29.7062 141.342 28.8674H143.842C143.845 29.2342 143.929 29.5529 144.09 29.8187C144.247 30.0817 144.478 30.2937 144.754 30.4292C145.039 30.5718 145.368 30.6431 145.738 30.6431C146.139 30.6431 146.482 30.5607 146.76 30.3917C147.039 30.2268 147.253 29.9795 147.402 29.6501C147.546 29.3245 147.623 28.9197 147.627 28.4404V18.8612ZM160.39 22.6075C160.329 22.0268 160.062 21.5733 159.596 21.2514C159.127 20.9258 158.52 20.7642 157.776 20.7642C157.254 20.7642 156.804 20.843 156.43 20.9967C156.056 21.1542 155.766 21.3635 155.567 21.6298C155.369 21.8957 155.269 22.199 155.262 22.5399C155.262 22.8247 155.33 23.0716 155.464 23.2777C155.598 23.488 155.777 23.664 156.01 23.8062C156.249 23.9565 156.505 24.0785 156.773 24.1697C157.055 24.267 157.338 24.3494 157.62 24.417L158.921 24.7352C159.439 24.8527 159.946 25.0157 160.436 25.2224C160.907 25.4164 161.347 25.6762 161.744 25.994C162.126 26.3 162.438 26.6829 162.66 27.1177C162.885 27.5562 163 28.0694 163 28.6613C163 29.4593 162.794 30.1596 162.378 30.7668C161.962 31.3698 161.363 31.8417 160.577 32.1826C159.795 32.5198 158.848 32.6921 157.734 32.6921C156.658 32.6921 155.72 32.5272 154.93 32.1975C154.136 31.8718 153.518 31.392 153.071 30.763C152.625 30.1336 152.385 29.3657 152.35 28.463H154.823C154.857 28.9346 155.01 29.3282 155.269 29.6464C155.533 29.9609 155.876 30.1934 156.296 30.3509C156.72 30.5042 157.192 30.5829 157.715 30.5829C158.261 30.5829 158.742 30.5005 159.157 30.3397C159.57 30.1786 159.894 29.9535 160.127 29.6613C160.363 29.3727 160.482 29.0323 160.485 28.6424C160.482 28.2866 160.375 27.9907 160.169 27.7582C159.959 27.5261 159.669 27.3312 159.299 27.1741C158.875 26.9999 158.439 26.8584 157.994 26.7508L156.414 26.3535C155.273 26.0649 154.369 25.6268 153.709 25.0386C153.045 24.4504 152.717 23.6714 152.717 22.6933C152.717 21.892 152.938 21.1875 153.385 20.5845C153.827 19.9815 154.434 19.5128 155.201 19.1798C155.972 18.8426 156.842 18.6777 157.81 18.6777C158.795 18.6777 159.657 18.8426 160.402 19.1798C161.145 19.5132 161.73 19.9778 162.153 20.5697C162.576 21.1616 162.798 21.8392 162.809 22.6075H160.39Z" fill="black"/>
</g>
<defs>
<clipPath id="clip0_24_1513">
<rect width="163" height="33" fill="white"/>
</clipPath>
</defs>
</svg>
